<?xml version="1.0" encoding="iso-8859-1"?>
<!-- Generator: Adobe Illustrator 16.0.0, SVG Export Plug-In . SVG Version: 6.00 Build 0)  -->
<!DOCTYPE svg PUBLIC "-//W3C//DTD SVG 1.1//EN" "http://www.w3.org/Graphics/SVG/1.1/DTD/svg11.dtd">
<svg version="1.1" id="Capa_1" xmlns="http://www.w3.org/2000/svg" xmlns:xlink="http://www.w3.org/1999/xlink" x="0px" y="0px"
	 width="15px" height="15px" viewBox="0 0 612 612" style="enable-background:new 0 0 612 612;" xml:space="preserve">
<g>
	<g>
		<path d="M410.052,276.062h-66.953c-8.214-10.273-20.477-17.013-34.461-17.794l-60.243-84.797
			c-9.471-13.351-27.999-16.469-41.31-6.987c-13.321,9.471-16.449,27.959-6.977,41.3L260.37,292.6
			c-1.198,4.187-2.049,8.511-2.049,13.084c0,26.336,21.348,47.674,47.674,47.674c15.083,0,28.364-7.136,37.104-18.053h66.953
			c16.35,0,29.622-13.262,29.622-29.621C439.674,289.313,426.412,276.062,410.052,276.062z"/>
		<path d="M588.168,248.736h-8.778c-7.176-34.66-20.883-66.864-39.608-95.516l6.226-6.225c4.474-4.474,6.978-10.53,6.978-16.854
			s-2.504-12.381-6.978-16.854l-47.308-47.298c-4.474-4.474-10.53-6.978-16.854-6.978s-12.381,2.514-16.854,6.987l-6.136,6.146
			c-28.662-18.794-60.896-32.541-95.575-39.776v-8.511c0.01-13.163-10.649-23.842-23.822-23.842h-66.914
			c-13.173,0-23.832,10.679-23.832,23.832v8.512c-34.669,7.234-66.914,20.981-95.575,39.776L147,65.988
			c-4.474-4.464-10.53-6.978-16.854-6.978s-12.381,2.504-16.854,6.978l-47.308,47.298c-4.474,4.463-6.978,10.53-6.978,16.854
			s2.504,12.381,6.978,16.854l6.225,6.225c-18.725,28.652-32.433,60.847-39.608,95.506h-8.769C10.659,248.736,0,259.405,0,272.568
			v66.875c0,13.162,10.659,23.831,23.832,23.831h8.947c7.254,34.561,20.942,66.696,39.687,95.259l-6.482,6.482
			c-9.313,9.304-9.313,24.406,0,33.709l47.308,47.298c4.473,4.474,10.53,6.978,16.854,6.978s12.381-2.514,16.854-6.987l6.542-6.542
			c28.562,18.656,60.648,32.323,95.169,39.519v9.165c0,13.163,10.669,23.832,23.832,23.832h66.914
			c13.173,0,23.832-10.669,23.832-23.832v-9.165c34.521-7.205,66.606-20.862,95.169-39.519l6.542,6.542
			c4.474,4.474,10.53,6.987,16.854,6.987s12.381-2.504,16.854-6.978l47.308-47.298c9.313-9.303,9.313-24.405,0-33.709l-6.482-6.482
			c18.745-28.553,32.433-60.698,39.687-95.259h8.947c13.173,0,23.832-10.669,23.832-23.831v-66.875
			C612,259.405,601.331,248.736,588.168,248.736z M325.749,504.92v-17.014c0-10.906-8.828-19.744-19.744-19.744
			c-10.917,0-19.745,8.838-19.745,19.744v17.014c-94.684-9.313-170.179-84.817-179.492-179.502h17.013
			c10.916,0,19.744-8.838,19.744-19.745c0-10.906-8.828-19.744-19.744-19.744h-17.013c9.313-94.684,84.808-170.188,179.492-179.501
			v17.023c0,10.906,8.828,19.744,19.745,19.744c10.916,0,19.744-8.838,19.744-19.744v-17.023
			c94.685,9.313,170.179,84.817,179.492,179.501h-17.013c-10.917,0-19.745,8.848-19.745,19.744c0,10.907,8.828,19.745,19.745,19.745
			h17.013C495.928,420.103,420.434,495.606,325.749,504.92z"/>
	</g>
</g>
<g>
</g>
<g>
</g>
<g>
</g>
<g>
</g>
<g>
</g>
<g>
</g>
<g>
</g>
<g>
</g>
<g>
</g>
<g>
</g>
<g>
</g>
<g>
</g>
<g>
</g>
<g>
</g>
<g>
</g>
</svg>
